<?xml version="1.0" encoding="utf-8"?>
<!-- Generator: Adobe Illustrator 28.1.0, SVG Export Plug-In . SVG Version: 6.00 Build 0)  -->
<svg version="1.1" id="Layer_1" xmlns="http://www.w3.org/2000/svg" xmlns:xlink="http://www.w3.org/1999/xlink" x="0px" y="0px"
	 viewBox="0 0 358 358" style="enable-background:new 0 0 358 358;" xml:space="preserve">
<style type="text/css">
	.st0{fill:none;stroke:url(#SVGID_1_);}
	.st1{fill:none;stroke:url(#SVGID_00000149359689601611359760000003228440654571918732_);}
	.st2{fill:none;stroke:url(#SVGID_00000041277653192024131350000000614368939657408682_);}
	.st3{fill:none;stroke:url(#SVGID_00000010297246672375949390000015929968200170292379_);}
	.st4{fill:none;stroke:url(#SVGID_00000008122000098955933550000000460769189256413591_);}
	.st5{fill:none;stroke:url(#SVGID_00000178184345802531074240000009798558818251042967_);}
	.st6{fill:none;stroke:url(#SVGID_00000053521842651587838830000015727307079504863373_);}
	.st7{fill:none;stroke:url(#SVGID_00000052785532341167196840000013302908368198678699_);}
	.st8{fill:none;stroke:url(#SVGID_00000119808589763729721030000015259899007062768015_);}
	.st9{fill:none;stroke:url(#SVGID_00000176044161637901327020000013247872747115741579_);}
	.st10{fill:none;stroke:#000000;}
	.st11{fill:#381419;}
	.st12{fill:#FFFFFF;}
	.st13{fill:none;stroke:#FFFFFF;}
	.st14{fill:#D6D8E8;}
	.st15{font-family:'Poppins-Medium';}
	.st16{font-size:12px;}
</style>
<linearGradient id="SVGID_1_" gradientUnits="userSpaceOnUse" x1="90.8112" y1="524.8806" x2="145.6999" y2="579.77" gradientTransform="matrix(1 0 0 1 0 -434)">
	<stop  offset="0" style="stop-color:#000000"/>
	<stop  offset="1" style="stop-color:#000000;stop-opacity:0.15"/>
</linearGradient>
<path class="st0" d="M12.6,189.3L12.6,189.3L12.6,189.3c-3.4-0.3-5.5-1.2-6.7-2.4s-1.6-2.7-1.4-4.4s0.9-3.7,2.1-5.6
	c1.1-1.9,2.6-3.7,4.1-5.2L173.3,9.1c1.5-1.5,3.2-2.8,5-3.7c1.7-0.9,3.5-1.4,5-1.2c1.5,0.1,2.9,0.8,4,2.4s1.9,4,2.2,7.5l0,0l6.6,68.7
	c-1,8-2.1,14.1-8.1,20.1l-86.6,86.6c-6.1,6.1-13.1,7.8-19.4,7.5L12.6,189.3z"/>
<linearGradient id="SVGID_00000096747725220927114730000001798966304589513121_" gradientUnits="userSpaceOnUse" x1="108.437" y1="542.3559" x2="152.3482" y2="586.2671" gradientTransform="matrix(1 0 0 1 0 -434)">
	<stop  offset="0" style="stop-color:#000000"/>
	<stop  offset="1" style="stop-color:#000000;stop-opacity:0.15"/>
</linearGradient>
<path style="fill:none;stroke:url(#SVGID_00000096747725220927114730000001798966304589513121_);" d="M28.1,204.8L28.1,204.8
	L28.1,204.8c-3,0-4.7-0.6-5.7-1.5c-0.9-0.9-1.1-2.2-0.8-3.7c0.3-1.6,1.2-3.4,2.4-5.2c1.2-1.8,2.7-3.6,4.2-5.1L190.9,26.6
	c1.5-1.5,3.2-2.9,4.9-3.9s3.3-1.6,4.7-1.6c1.3,0,2.4,0.4,3.2,1.7c0.8,1.2,1.3,3.3,1.2,6.5l0,0l-1,61.2c-1.7,7.2-3.3,12.9-9.4,19
	L107.9,196c-6.1,6.1-12.6,8.3-18.3,8.7L28.1,204.8z"/>
<linearGradient id="SVGID_00000005974476352653784090000010986668636752857249_" gradientUnits="userSpaceOnUse" x1="125.9313" y1="559.9616" x2="158.8648" y2="592.8951" gradientTransform="matrix(1 0 0 1 0 -434)">
	<stop  offset="0" style="stop-color:#000000"/>
	<stop  offset="1" style="stop-color:#000000;stop-opacity:0.15"/>
</linearGradient>
<path style="fill:none;stroke:url(#SVGID_00000005974476352653784090000010986668636752857249_);" d="M43.5,220.3L43.5,220.3
	L43.5,220.3c-1.3,0.2-2.3,0.2-3.1,0.1c-0.8-0.1-1.3-0.4-1.6-0.6c-0.6-0.6-0.7-1.6-0.2-3s1.5-3.2,2.8-4.9s2.8-3.5,4.4-5L208.4,44.2
	c1.5-1.5,3.2-2.9,4.8-4s3.1-1.8,4.3-2c0.6-0.1,1.1-0.1,1.5,0.1c0.4,0.1,0.7,0.4,1,0.9c0.5,0.9,0.7,2.6,0.2,5.4l0,0l-8.5,53.7
	c-2.4,6.5-4.5,11.7-10.6,17.8l-86.6,86.6c-6.1,6.1-12.1,8.9-17.1,9.9L43.5,220.3z"/>
<linearGradient id="SVGID_00000034783475032779875450000001396910339869738687_" gradientUnits="userSpaceOnUse" x1="143.5861" y1="577.5031" x2="165.5437" y2="599.4617" gradientTransform="matrix(1 0 0 1 0 -434)">
	<stop  offset="0" style="stop-color:#000000"/>
	<stop  offset="1" style="stop-color:#000000;stop-opacity:0.15"/>
</linearGradient>
<path style="fill:none;stroke:url(#SVGID_00000034783475032779875450000001396910339869738687_);" d="M58.9,235.8L58.9,235.8
	L58.9,235.8c-1.1,0.4-2,0.6-2.6,0.6s-0.9-0.1-1-0.2c-0.1-0.1-0.2-0.3-0.1-0.7c0.1-0.4,0.3-1,0.6-1.6c1.3-2.6,4.6-6.4,7.7-9.5
	L226,61.8c1.5-1.5,3.2-3,4.7-4.2s2.9-2,4-2.4c0.5-0.2,0.9-0.2,1.2-0.2c0.2,0,0.4,0.2,0.5,0.4c0.1,0.3,0.2,0.8,0,1.5
	c-0.1,0.7-0.4,1.7-0.8,2.9l0,0l-16,46.1c-3.1,5.9-5.7,10.5-11.8,16.7l-86.6,86.6c-6.1,6.1-11.6,9.5-16,11.2L58.9,235.8z"/>
<linearGradient id="SVGID_00000042724024143530323840000002887980520979787199_" gradientUnits="userSpaceOnUse" x1="161.2204" y1="594.9658" x2="172.2031" y2="605.9494" gradientTransform="matrix(1 0 0 1 0 -434)">
	<stop  offset="0" style="stop-color:#000000"/>
	<stop  offset="1" style="stop-color:#000000;stop-opacity:0.15"/>
</linearGradient>
<path style="fill:none;stroke:url(#SVGID_00000042724024143530323840000002887980520979787199_);" d="M74.3,251.4L74.3,251.4
	L74.3,251.4c-1,0.6-1.6,0.9-2.1,1.1c-0.1,0-0.2,0.1-0.3,0.1c0,0,0-0.1,0.1-0.1c0.2-0.3,0.4-0.8,0.9-1.4c1.7-2.3,5.1-6,8.2-9.1
	L243.6,79.3c3.1-3.1,6.4-6,8.2-7.2c0.4-0.2,0.6-0.3,0.8-0.4c0,0,0,0.1,0,0.2c-0.1,0.2-0.1,0.4-0.3,0.7c-0.3,0.6-0.7,1.4-1.3,2.4l0,0
	l-23.6,38.6c-3.8,5.2-6.9,9.4-13.1,15.5l-86.6,86.6c-6.2,6.2-11.2,10.1-14.9,12.4L74.3,251.4z M71.6,252.6L71.6,252.6L71.6,252.6z
	 M252.8,71.7L252.8,71.7L252.8,71.7z"/>
<linearGradient id="SVGID_00000117667006866720309650000018411866732558201473_" gradientUnits="userSpaceOnUse" x1="266.4189" y1="700.4883" x2="211.5297" y2="645.5992" gradientTransform="matrix(1 0 0 1 0 -434)">
	<stop  offset="0" style="stop-color:#000000"/>
	<stop  offset="1" style="stop-color:#000000;stop-opacity:0.15"/>
</linearGradient>
<path style="fill:none;stroke:url(#SVGID_00000117667006866720309650000018411866732558201473_);" d="M168,344.7L168,344.7
	L168,344.7c0.3,3.4,1.2,5.5,2.4,6.7s2.7,1.6,4.4,1.4s3.7-0.9,5.6-2.1c1.9-1.1,3.7-2.6,5.2-4.1L348.2,184c1.5-1.5,2.8-3.2,3.7-5
	c0.9-1.7,1.4-3.5,1.2-5c-0.1-1.5-0.8-2.9-2.4-4s-4-1.9-7.5-2.2l0,0l-68.7-6.6c-8,1-14.1,2.1-20.1,8.1L167.9,256
	c-6.1,6.1-7.8,13.1-7.5,19.4L168,344.7z"/>
<linearGradient id="SVGID_00000078735215405836832730000005631802099797907895_" gradientUnits="userSpaceOnUse" x1="248.8941" y1="683.013" x2="204.983" y2="639.1019" gradientTransform="matrix(1 0 0 1 0 -434)">
	<stop  offset="0" style="stop-color:#000000"/>
	<stop  offset="1" style="stop-color:#000000;stop-opacity:0.15"/>
</linearGradient>
<path style="fill:none;stroke:url(#SVGID_00000078735215405836832730000005631802099797907895_);" d="M152.5,329.3L152.5,329.3
	L152.5,329.3c0,3,0.6,4.7,1.5,5.7c0.9,0.9,2.2,1.1,3.7,0.8c1.6-0.3,3.4-1.2,5.2-2.4c1.8-1.2,3.6-2.7,5.1-4.2l162.6-162.6
	c1.5-1.5,2.9-3.2,3.9-4.9s1.6-3.3,1.6-4.7c0-1.3-0.4-2.4-1.7-3.2c-1.2-0.8-3.3-1.3-6.5-1.2l0,0l-61.2,1c-7.2,1.7-12.9,3.3-19,9.4
	l-86.6,86.6c-6.1,6.1-8.3,12.6-8.7,18.3L152.5,329.3z"/>
<linearGradient id="SVGID_00000111158312905639389480000005079723801596223649_" gradientUnits="userSpaceOnUse" x1="231.3171" y1="665.3973" x2="198.3816" y2="632.4628" gradientTransform="matrix(1 0 0 1 0 -434)">
	<stop  offset="0" style="stop-color:#000000"/>
	<stop  offset="1" style="stop-color:#000000;stop-opacity:0.15"/>
</linearGradient>
<path style="fill:none;stroke:url(#SVGID_00000111158312905639389480000005079723801596223649_);" d="M137,313.8L137,313.8
	L137,313.8c-0.2,1.3-0.2,2.3-0.1,3.1c0.1,0.8,0.3,1.3,0.6,1.6c0.6,0.6,1.6,0.7,3,0.2s3.2-1.5,4.9-2.8s3.5-2.8,5-4.4L313,148.9
	c1.5-1.5,2.9-3.2,4-4.8s1.8-3.1,2-4.3c0.1-0.6,0.1-1.1-0.1-1.5c-0.1-0.4-0.4-0.7-0.9-1c-0.9-0.5-2.6-0.7-5.4-0.2l0,0l-53.7,8.5
	c-6.5,2.4-11.7,4.5-17.8,10.6l-86.6,86.6c-6.1,6.1-8.9,12.1-9.9,17.1L137,313.8z"/>
<linearGradient id="SVGID_00000158030832404142311880000007173609883090088124_" gradientUnits="userSpaceOnUse" x1="213.858" y1="647.7251" x2="191.9024" y2="625.7695" gradientTransform="matrix(1 0 0 1 0 -434)">
	<stop  offset="0" style="stop-color:#000000"/>
	<stop  offset="1" style="stop-color:#000000;stop-opacity:0.15"/>
</linearGradient>
<path style="fill:none;stroke:url(#SVGID_00000158030832404142311880000007173609883090088124_);" d="M121.5,298.4L121.5,298.4
	L121.5,298.4c-0.4,1.1-0.6,2-0.6,2.6s0.1,0.9,0.2,1s0.3,0.2,0.7,0.1c0.4-0.1,1-0.3,1.6-0.6c2.6-1.3,6.4-4.6,9.5-7.7l162.6-162.6
	c1.5-1.5,3-3.2,4.2-4.7s2-2.9,2.4-4c0.2-0.5,0.2-0.9,0.2-1.2c0-0.2-0.2-0.4-0.4-0.5c-0.3-0.1-0.8-0.2-1.5,0
	c-0.7,0.1-1.7,0.4-2.9,0.8l0,0l-46.1,16c-5.9,3.1-10.5,5.7-16.7,11.8L148.1,236c-6.1,6.1-9.5,11.6-11.2,16L121.5,298.4z"/>
<linearGradient id="SVGID_00000055673065197601074010000010456675519616084390_" gradientUnits="userSpaceOnUse" x1="196.333" y1="630.1285" x2="185.3502" y2="619.1448" gradientTransform="matrix(1 0 0 1 0 -434)">
	<stop  offset="0" style="stop-color:#000000"/>
	<stop  offset="1" style="stop-color:#000000;stop-opacity:0.15"/>
</linearGradient>
<path style="fill:none;stroke:url(#SVGID_00000055673065197601074010000010456675519616084390_);" d="M105.9,283L105.9,283
	L105.9,283c-0.6,1-0.9,1.6-1.1,2.1c0,0.1-0.1,0.2-0.1,0.3c0,0,0.1,0,0.1-0.1c0.3-0.2,0.8-0.4,1.4-0.9c2.3-1.7,6-5.1,9.1-8.2
	L278,113.8c3.1-3.1,6-6.4,7.2-8.2c0.2-0.4,0.3-0.6,0.4-0.8c0,0-0.1,0-0.2,0c-0.2,0.1-0.4,0.1-0.7,0.3c-0.6,0.3-1.4,0.7-2.4,1.3l0,0
	L243.7,130c-5.2,3.8-9.4,6.9-15.5,13.1l-86.6,86.6c-6.2,6.2-10.1,11.2-12.4,14.9L105.9,283z M104.7,285.7L104.7,285.7L104.7,285.7z
	 M285.6,104.6L285.6,104.6L285.6,104.6z"/>
<line class="st10" x1="87.7" y1="268.9" x2="268.9" y2="87.7"/>
<path class="st11" d="M26.7,118.2l57.7-16.5c8.5-2.4,17.4,2.5,19.8,11l0,0c2.4,8.5-2.5,17.4-11,19.8L35.5,149
	c-8.5,2.4-17.4-2.5-19.8-11l0,0C13.3,129.5,18.2,120.6,26.7,118.2z"/>
<path class="st12" d="M191.4,46.5l103.4,10.9c8.5,0.9,14.7,8.5,13.8,17l0,0c-0.9,8.5-8.5,14.7-17,13.8L188.2,77.3
	c-8.5-0.9-14.7-8.5-13.8-17l0,0C175.3,51.8,182.9,45.6,191.4,46.5z"/>
<path class="st10" d="M191.4,46.5l103.4,10.9c8.5,0.9,14.7,8.5,13.8,17l0,0c-0.9,8.5-8.5,14.7-17,13.8L188.2,77.3
	c-8.5-0.9-14.7-8.5-13.8-17l0,0C175.3,51.8,182.9,45.6,191.4,46.5z"/>
<path d="M159,217.7l100.6-8.8c8.5-0.7,16,5.6,16.8,14.1l0,0c0.7,8.5-5.6,16-14.1,16.8l-100.6,8.8c-8.5,0.7-16-5.6-16.8-14.1l0,0
	C144.1,226,150.5,218.4,159,217.7z"/>
<path class="st13" d="M159,217.7l100.6-8.8c8.5-0.7,16,5.6,16.8,14.1l0,0c0.7,8.5-5.6,16-14.1,16.8l-100.6,8.8
	c-8.5,0.7-16-5.6-16.8-14.1l0,0C144.1,226,150.5,218.4,159,217.7z"/>
<path class="st14" d="M240.6,237.5l42.9,19.1c8.1,3.6,11.7,13.1,8.1,21.1l0,0c-3.6,8.1-13.1,11.7-21.1,8.1l-42.9-19.1
	c-8.1-3.6-11.7-13.1-8.1-21.1l0,0C223.1,237.5,232.6,233.9,240.6,237.5z"/>
<text transform="matrix(0.9611 -0.2761 0.2761 0.9611 25.9855 138.6222)" class="st12 st15 st16">RECHERCHE</text>
<text transform="matrix(0.9947 0.1031 -0.1031 0.9947 180.021 65.7227)" class="st15 st16">Conception créative </text>
<text transform="matrix(0.9108 0.4128 -0.4128 0.9108 226.5306 251.9952)" class="st15 st16">Évaluation</text>
<text transform="matrix(0.9959 -8.991155e-02 8.991155e-02 0.9959 162.25 236.3998)" class="st12 st15 st16">Mise en œuvre</text>
</svg>
